<?xml version="1.0" encoding="utf-8"?>
<!-- Generator: Adobe Illustrator 27.5.0, SVG Export Plug-In . SVG Version: 6.00 Build 0)  -->
<svg version="1.1" id="Layer_1" xmlns="http://www.w3.org/2000/svg" xmlns:xlink="http://www.w3.org/1999/xlink" x="0px" y="0px"
	 viewBox="0 0 1920 1080" style="enable-background:new 0 0 1920 1080;" xml:space="preserve">
<style type="text/css">
	.st0{opacity:0.75;}
	.st1{fill:none;}
	.st2{opacity:0.75;fill:#464342;}
	.st3{fill:#121110;}
	.st4{opacity:0.75;fill:#563D7C;}
	.st5{opacity:0.75;fill:#FFFFFF;}
	.st6{fill:#61DAFB;}
	.st7{opacity:0.75;fill:#E34F26;}
	.st8{opacity:0.75;fill:#EF652A;}
	.st9{opacity:0.75;fill:#1B73BA;}
	.st10{opacity:0.75;fill:#1C88C7;}
	.st11{opacity:0.75;fill:#E9CA32;}
	.st12{opacity:0.75;fill:#FFDE25;}
	.st13{fill:#FFFFFF;}
</style>
<g class="st0">
	<rect x="673" y="550.6" class="st1" width="624.4" height="496.5"/>
	<path class="st2" d="M841.8,767.6c0,22.8,13.2,42.4,32.4,51.7l-27.4-75.1C843.5,751.6,841.8,759.5,841.8,767.6z M938.1,764.7
		c0-7.1-2.6-12-4.7-15.9c-2.9-4.7-5.6-8.7-5.6-13.5c0-5.3,4-10.2,9.7-10.2c0.3,0,0.5,0,0.7,0c-10.2-9.4-23.9-15.1-38.8-15.1
		c-20.1,0-37.7,10.3-48,25.9c1.3,0,2.6,0.1,3.7,0.1c6,0,15.3-0.7,15.3-0.7c3.1-0.2,3.5,4.4,0.4,4.7c0,0-3.1,0.4-6.6,0.5l20.9,62.3
		l12.6-37.7l-9-24.5c-3.1-0.2-6-0.5-6-0.5c-3.1-0.2-2.7-4.9,0.4-4.7c0,0,9.5,0.7,15.1,0.7c6,0,15.3-0.7,15.3-0.7
		c3.1-0.2,3.5,4.4,0.4,4.7c0,0-3.1,0.4-6.6,0.5l20.8,61.8l5.7-19.2C936.2,775.3,938.1,769.6,938.1,764.7L938.1,764.7z M900.3,772.6
		l-17.2,50.1c5.3,1.6,10.7,2.3,16.2,2.3c6.7,0,13.1-1.2,19.1-3.3c-0.2-0.3-0.3-0.5-0.4-0.8L900.3,772.6L900.3,772.6z M949.8,740
		c0.2,1.8,0.4,3.8,0.4,5.9c0,5.8-1.1,12.4-4.4,20.6l-17.6,50.8c17.1-10,28.6-28.5,28.6-49.7C956.8,757.6,954.2,748.2,949.8,740
		L949.8,740z M899.3,700.6c-36.9,0-67,30.1-67,67c0,36.9,30.1,67,67,67c36.9,0,67-30.1,67-67C966.3,730.7,936.3,700.6,899.3,700.6
		L899.3,700.6z M899.3,831.5c-35.3,0-63.9-28.7-63.9-63.9c0-35.3,28.7-63.9,63.9-63.9c35.2,0,63.9,28.7,63.9,63.9
		C963.2,802.8,934.6,831.5,899.3,831.5z"/>
	<g class="st0">
		<path class="st3" d="M1016,1004.5h-23.2c-0.6,0-1.1,0.5-1.1,1.1v11.3c0,0.6,0.5,1.1,1.1,1.1h9v14.1c0,0-2,0.7-7.6,0.7
			c-6.6,0-15.9-2.4-15.9-22.7c0-20.3,9.6-23,18.7-23c7.8,0,11.2,1.4,13.3,2c0.7,0.2,1.3-0.5,1.3-1.1l2.6-10.9c0-0.3-0.1-0.6-0.4-0.8
			c-0.9-0.6-6.2-3.6-19.6-3.6c-15.5,0-31.3,6.6-31.3,38.2c0,31.6,18.2,36.3,33.5,36.3c12.7,0,20.4-5.4,20.4-5.4
			c0.3-0.2,0.4-0.6,0.4-0.8v-35.3C1017.1,1005,1016.6,1004.5,1016,1004.5 M1135.4,976.4c0-0.6-0.5-1.1-1.1-1.1c0,0,0,0,0,0h-13
			c-0.6,0-1.1,0.5-1.1,1.1c0,0,0,0,0,0l0,25.2h-20.3v-25.2c0-0.6-0.5-1.1-1.1-1.1c0,0,0,0,0,0h-13c-0.6,0-1.1,0.5-1.1,1.1v68.3
			c0,0.6,0.5,1.1,1.1,1.1h13c0.6,0,1.1-0.5,1.1-1.1v-29.2h20.3l0,29.2c0,0.6,0.5,1.1,1.1,1.1h13.1c0.6,0,1.1-0.5,1.1-1.1V976.4
			 M1040.6,985.3c0-4.7-3.8-8.5-8.4-8.5c-4.6,0-8.4,3.8-8.4,8.5c0,4.7,3.8,8.5,8.4,8.5C1036.8,993.8,1040.6,990,1040.6,985.3
			 M1039.7,1030.2v-31.5c0-0.6-0.5-1.1-1.1-1.1h-13c-0.6,0-1.1,0.6-1.1,1.2v45.1c0,1.3,0.8,1.7,1.9,1.7h11.7c1.3,0,1.6-0.6,1.6-1.7
			V1030.2 M1184.9,997.7H1172c-0.6,0-1.1,0.5-1.1,1.1v33.5c0,0-3.3,2.4-8,2.4c-4.7,0-5.9-2.1-5.9-6.7v-29.2c0-0.6-0.5-1.1-1.1-1.1
			h-13.1c-0.6,0-1.1,0.5-1.1,1.1v31.4c0,13.6,7.6,16.9,18,16.9c8.5,0,15.4-4.7,15.4-4.7s0.3,2.5,0.5,2.8c0.1,0.3,0.5,0.6,1,0.6
			l8.4,0c0.6,0,1.1-0.5,1.1-1.1l0-45.8C1186,998.2,1185.5,997.7,1184.9,997.7 M1215.2,1034.7c-4.5-0.1-7.5-2.2-7.5-2.2v-21.6
			c0,0,3-1.8,6.7-2.2c4.7-0.4,9.2,1,9.2,12.1C1223.5,1032.5,1221.5,1034.9,1215.2,1034.7z M1220.3,996.2c-7.4,0-12.4,3.3-12.4,3.3
			v-23.1c0-0.6-0.5-1.1-1.1-1.1h-13.1c-0.6,0-1.1,0.5-1.1,1.1c0,0,0,0,0,0v68.3c0,0.6,0.5,1.1,1.1,1.1h9.1c0.4,0,0.7-0.2,0.9-0.6
			c0.2-0.4,0.6-3.1,0.6-3.1s5.3,5.1,15.5,5.1c11.9,0,18.7-6,18.7-27.1C1238.6,999,1227.7,996.2,1220.3,996.2 M1077.2,997.6h-9.8
			l0-12.9c0-0.5-0.3-0.7-0.8-0.7h-13.3c-0.5,0-0.8,0.2-0.8,0.7v13.4c0,0-6.7,1.6-7.1,1.7c-0.5,0.1-0.8,0.6-0.8,1v8.4
			c0,0.6,0.5,1.1,1.1,1.1h6.8v20.2c0,15,10.5,16.5,17.6,16.5c3.2,0,7.1-1,7.8-1.3c0.4-0.1,0.6-0.5,0.6-1l0-9.2
			c0-0.6-0.5-1.1-1.1-1.1c-0.6,0-2,0.2-3.5,0.2c-4.8,0-6.4-2.2-6.4-5.1l0-19.2h9.8c0.6,0,1.1-0.5,1.1-1.1v-10.5
			C1078.2,998.1,1077.8,997.6,1077.2,997.6C1077.2,997.6,1077.2,997.6,1077.2,997.6"/>
	</g>
	<path class="st4" d="M1016.9,893.2c0,9,7.3,16.3,16.3,16.3h93.6c9,0,16.3-7.3,16.3-16.3v-93.6c0-9-7.3-16.3-16.3-16.3h-93.6
		c-9,0-16.3,7.3-16.3,16.3V893.2L1016.9,893.2z"/>
	<path class="st5" d="M1069.2,839.1v-17.9h15.7c1.5,0,2.9,0.1,4.3,0.4c1.4,0.2,2.6,0.7,3.7,1.3c1.1,0.6,1.9,1.5,2.6,2.7
		c0.6,1.1,1,2.6,1,4.4c0,3.2-1,5.5-2.9,7c-1.9,1.4-4.4,2.1-7.4,2.1H1069.2L1069.2,839.1z M1052.5,808.2v76.4h37
		c3.4,0,6.8-0.4,10-1.3c3.2-0.9,6.1-2.2,8.7-4c2.5-1.8,4.5-4.1,6-6.9c1.5-2.8,2.2-6.2,2.2-10c0-4.8-1.2-8.9-3.5-12.3
		c-2.3-3.4-5.8-5.8-10.5-7.1c3.4-1.6,6-3.7,7.8-6.3c1.7-2.6,2.6-5.8,2.6-9.6c0-3.6-0.6-6.6-1.8-9c-1.2-2.4-2.8-4.4-5-5.8
		c-2.1-1.5-4.7-2.5-7.7-3.2c-3-0.6-6.3-1-10-1H1052.5L1052.5,808.2z M1069.2,871.5v-21h18.3c3.6,0,6.6,0.8,8.8,2.5
		c2.2,1.7,3.3,4.5,3.3,8.4c0,2-0.3,3.6-1,4.9c-0.7,1.3-1.6,2.3-2.7,3c-1.1,0.7-2.5,1.3-4,1.6c-1.5,0.3-3.1,0.5-4.7,0.5H1069.2
		L1069.2,871.5z"/>
	<g class="st0">
		<path class="st6" d="M1290.4,727.3c0-9-11.3-17.6-28.6-22.9c4-17.7,2.2-31.7-5.6-36.2c-1.8-1.1-3.9-1.6-6.2-1.6v6.2
			c1.3,0,2.3,0.2,3.2,0.7c3.8,2.2,5.4,10.4,4.1,21c-0.3,2.6-0.8,5.4-1.4,8.2c-5.4-1.3-11.4-2.4-17.6-3c-3.8-5.1-7.6-9.8-11.6-13.9
			c9.1-8.4,17.6-13,23.3-13v-6.2c-7.6,0-17.6,5.4-27.8,14.9c-10.1-9.4-20.1-14.8-27.8-14.8v6.2c5.8,0,14.3,4.6,23.3,12.9
			c-3.9,4.1-7.8,8.7-11.5,13.9c-6.3,0.7-12.2,1.7-17.7,3.1c-0.6-2.8-1.1-5.5-1.4-8.1c-1.3-10.6,0.3-18.9,4.1-21.1
			c0.8-0.5,1.9-0.7,3.2-0.7v-6.2c-2.3,0-4.4,0.5-6.3,1.6c-7.8,4.5-9.6,18.5-5.5,36.1c-17.3,5.3-28.5,13.9-28.5,22.9
			c0,9,11.3,17.6,28.6,22.9c-4,17.7-2.2,31.7,5.6,36.2c1.8,1.1,3.9,1.6,6.3,1.6c7.6,0,17.6-5.4,27.8-14.9
			c10.1,9.4,20.1,14.8,27.8,14.8c2.3,0,4.4-0.5,6.3-1.6c7.8-4.5,9.6-18.5,5.5-36.1C1279.2,744.9,1290.4,736.3,1290.4,727.3
			L1290.4,727.3z M1254.3,708.8c-1,3.6-2.3,7.3-3.8,11c-1.1-2.2-2.3-4.4-3.6-6.7c-1.3-2.2-2.6-4.4-4-6.5
			C1246.8,707.2,1250.6,707.9,1254.3,708.8L1254.3,708.8z M1241.5,738.4c-2.2,3.8-4.4,7.3-6.7,10.6c-4.1,0.4-8.3,0.6-12.6,0.6
			c-4.2,0-8.4-0.2-12.5-0.5c-2.3-3.3-4.6-6.8-6.7-10.6c-2.1-3.6-4-7.3-5.8-11.1c1.7-3.7,3.7-7.4,5.8-11.1c2.2-3.8,4.4-7.3,6.7-10.6
			c4.1-0.4,8.3-0.6,12.6-0.6c4.2,0,8.4,0.2,12.5,0.5c2.3,3.3,4.6,6.8,6.7,10.6c2.1,3.6,4,7.3,5.8,11.1
			C1245.5,731,1243.6,734.7,1241.5,738.4L1241.5,738.4z M1250.5,734.7c1.5,3.7,2.8,7.4,3.8,11.1c-3.6,0.9-7.5,1.6-11.4,2.2
			c1.4-2.1,2.7-4.3,4-6.6C1248.2,739.2,1249.4,737,1250.5,734.7L1250.5,734.7z M1222.3,764.4c-2.6-2.7-5.2-5.6-7.7-8.9
			c2.5,0.1,5.1,0.2,7.6,0.2c2.6,0,5.2-0.1,7.7-0.2C1227.5,758.7,1224.9,761.7,1222.3,764.4z M1201.7,748c-3.9-0.6-7.8-1.3-11.4-2.2
			c1-3.6,2.3-7.3,3.8-11c1.1,2.2,2.3,4.4,3.6,6.7S1200.3,745.9,1201.7,748z M1222.2,690.2c2.6,2.7,5.2,5.6,7.7,8.9
			c-2.5-0.1-5.1-0.2-7.6-0.2c-2.6,0-5.2,0.1-7.7,0.2C1217.1,695.8,1219.6,692.9,1222.2,690.2z M1201.6,706.6c-1.4,2.1-2.7,4.3-4,6.6
			c-1.3,2.2-2.5,4.4-3.6,6.7c-1.5-3.7-2.8-7.4-3.8-11.1C1193.8,707.9,1197.7,707.2,1201.6,706.6L1201.6,706.6z M1176.5,741.4
			c-9.8-4.2-16.2-9.7-16.2-14.1s6.4-9.9,16.2-14.1c2.4-1,5-1.9,7.7-2.8c1.6,5.4,3.7,11.1,6.3,16.9c-2.6,5.8-4.6,11.4-6.2,16.8
			C1181.5,743.3,1178.9,742.4,1176.5,741.4L1176.5,741.4z M1191.4,781.1c-3.8-2.2-5.4-10.4-4.1-21c0.3-2.6,0.8-5.4,1.4-8.2
			c5.4,1.3,11.4,2.4,17.6,3c3.8,5.1,7.6,9.8,11.6,13.9c-9.1,8.4-17.6,13-23.3,13C1193.3,781.8,1192.3,781.5,1191.4,781.1
			L1191.4,781.1z M1257.3,759.9c1.3,10.6-0.3,18.9-4.1,21.1c-0.8,0.5-1.9,0.7-3.2,0.7c-5.8,0-14.3-4.6-23.3-12.9
			c3.9-4.1,7.8-8.7,11.5-13.9c6.3-0.7,12.2-1.7,17.7-3.1C1256.5,754.6,1257,757.3,1257.3,759.9z M1268,741.4c-2.4,1-5,1.9-7.7,2.8
			c-1.6-5.4-3.7-11.1-6.3-16.9c2.6-5.8,4.6-11.4,6.2-16.8c2.8,0.9,5.4,1.8,7.8,2.8c9.8,4.2,16.2,9.7,16.2,14.1
			C1284.2,731.7,1277.9,737.2,1268,741.4L1268,741.4z"/>
		<circle class="st6" cx="1222.2" cy="727.3" r="12.7"/>
	</g>
	<path class="st7" d="M737.7,987.4l-10.4-126.7l123.8,0.3l-11,126.4l-50.5,14.6L737.7,987.4z"/>
	<path class="st8" d="M789.7,989.8v-117l51,0.2l-9.1,104.7L789.7,989.8z"/>
	<path class="st5" d="M826.6,902.1l1.4-15.5h-78.4L754,934h54.1l-2.1,20.2l-17.3,4.7l-17.6-5.1l-0.9-12.1h-15.6l2.1,24.6l31.9,8.9
		l32.2-8.9l4.3-48.1h-56.8l-1.6-16.2H826.6z"/>
	<path class="st9" d="M710.7,707.9L700,577.8l127.1,0.3l-11.3,129.8l-51.8,15L710.7,707.9z"/>
	<path class="st10" d="M764,710.3V590.2l52.3,0.2L807,697.9L764,710.3z"/>
	<path class="st5" d="M803.4,605.6h-80.5l2.2,15.7h38.2l-37.6,16.1l2.2,15.2h55.4l-2,21.2l-18.8,3.7l-17-4.4l-1.3-12h-15.6l2.1,25
		l33.5,9.3l32.1-10.2l4.1-48.9h-33.9l37-15.4L803.4,605.6z"/>
	<path class="st11" d="M981.7,710.1l-10.8-132.5l129.5,0.3l-11.5,132.2l-52.8,15.3L981.7,710.1z"/>
	<path class="st12" d="M1036.1,712.6V590.2l53.3,0.2l-9.5,109.5L1036.1,712.6z"/>
	<g class="st0">
		<path class="st13" d="M1030.4,604.7h-14.1v81.4l-11-2.1v-11l-13.1-2.1v24.5l38.1,9.9V604.7z M1041,604.7h39l-2.6,15.6h-21.5V646
			h21.5l-2.6,51.7l-33.8,7.8v-16.2l22.8-7.8l1.3-21.4l-24.2,3.5V604.7z"/>
	</g>
</g>
<g class="st0">
	<rect x="42" y="561.6" class="st1" width="624.4" height="496.5"/>
	<path class="st2" d="M210.8,778.6c0,22.8,13.2,42.4,32.4,51.7l-27.4-75.1C212.5,762.6,210.8,770.5,210.8,778.6z M307.1,775.7
		c0-7.1-2.6-12-4.7-15.9c-2.9-4.7-5.6-8.7-5.6-13.5c0-5.3,4-10.2,9.7-10.2c0.3,0,0.5,0,0.7,0c-10.2-9.4-23.9-15.1-38.8-15.1
		c-20.1,0-37.7,10.3-48,25.9c1.3,0,2.6,0.1,3.7,0.1c6,0,15.3-0.7,15.3-0.7c3.1-0.2,3.5,4.4,0.4,4.7c0,0-3.1,0.4-6.6,0.5l20.9,62.3
		l12.6-37.7l-9-24.5c-3.1-0.2-6-0.5-6-0.5c-3.1-0.2-2.7-4.9,0.4-4.7c0,0,9.5,0.7,15.1,0.7c6,0,15.3-0.7,15.3-0.7
		c3.1-0.2,3.5,4.4,0.4,4.7c0,0-3.1,0.4-6.6,0.5l20.8,61.8l5.7-19.2C305.2,786.3,307.1,780.6,307.1,775.7L307.1,775.7z M269.3,783.6
		l-17.2,50.1c5.3,1.6,10.7,2.3,16.2,2.3c6.7,0,13.1-1.2,19.1-3.3c-0.2-0.3-0.3-0.5-0.4-0.8L269.3,783.6L269.3,783.6z M318.8,751
		c0.2,1.8,0.4,3.8,0.4,5.9c0,5.8-1.1,12.4-4.4,20.6l-17.6,50.8c17.1-10,28.6-28.5,28.6-49.7C325.8,768.6,323.2,759.2,318.8,751
		L318.8,751z M268.3,711.6c-36.9,0-67,30.1-67,67c0,36.9,30.1,67,67,67c36.9,0,67-30.1,67-67C335.3,741.7,305.3,711.6,268.3,711.6
		L268.3,711.6z M268.3,842.5c-35.3,0-63.9-28.7-63.9-63.9c0-35.3,28.7-63.9,63.9-63.9c35.2,0,63.9,28.7,63.9,63.9
		C332.2,813.8,303.6,842.5,268.3,842.5z"/>
	<g class="st0">
		<path class="st3" d="M385,1015.5h-23.2c-0.6,0-1.1,0.5-1.1,1.1v11.3c0,0.6,0.5,1.1,1.1,1.1h9v14.1c0,0-2,0.7-7.6,0.7
			c-6.6,0-15.9-2.4-15.9-22.7c0-20.3,9.6-23,18.7-23c7.8,0,11.2,1.4,13.3,2c0.7,0.2,1.3-0.5,1.3-1.1l2.6-10.9c0-0.3-0.1-0.6-0.4-0.8
			c-0.9-0.6-6.2-3.6-19.6-3.6c-15.5,0-31.3,6.6-31.3,38.2c0,31.6,18.2,36.3,33.5,36.3c12.7,0,20.4-5.4,20.4-5.4
			c0.3-0.2,0.4-0.6,0.4-0.8v-35.3C386.1,1016,385.6,1015.5,385,1015.5 M504.4,987.4c0-0.6-0.5-1.1-1.1-1.1c0,0,0,0,0,0h-13
			c-0.6,0-1.1,0.5-1.1,1.1c0,0,0,0,0,0l0,25.2h-20.3v-25.2c0-0.6-0.5-1.1-1.1-1.1c0,0,0,0,0,0h-13c-0.6,0-1.1,0.5-1.1,1.1v68.3
			c0,0.6,0.5,1.1,1.1,1.1h13c0.6,0,1.1-0.5,1.1-1.1v-29.2h20.3l0,29.2c0,0.6,0.5,1.1,1.1,1.1h13.1c0.6,0,1.1-0.5,1.1-1.1
			L504.4,987.4 M409.6,996.3c0-4.7-3.8-8.5-8.4-8.5c-4.6,0-8.4,3.8-8.4,8.5c0,4.7,3.8,8.5,8.4,8.5
			C405.8,1004.8,409.6,1001,409.6,996.3 M408.7,1041.2v-31.5c0-0.6-0.5-1.1-1.1-1.1h-13c-0.6,0-1.1,0.6-1.1,1.2v45.1
			c0,1.3,0.8,1.7,1.9,1.7h11.7c1.3,0,1.6-0.6,1.6-1.7L408.7,1041.2 M553.9,1008.7H541c-0.6,0-1.1,0.5-1.1,1.1v33.5
			c0,0-3.3,2.4-8,2.4c-4.7,0-5.9-2.1-5.9-6.7v-29.2c0-0.6-0.5-1.1-1.1-1.1h-13.1c-0.6,0-1.1,0.5-1.1,1.1v31.4
			c0,13.6,7.6,16.9,18,16.9c8.5,0,15.4-4.7,15.4-4.7s0.3,2.5,0.5,2.8c0.1,0.3,0.5,0.6,1,0.6l8.4,0c0.6,0,1.1-0.5,1.1-1.1l0-45.8
			C555,1009.2,554.5,1008.7,553.9,1008.7 M584.2,1045.7c-4.5-0.1-7.5-2.2-7.5-2.2v-21.6c0,0,3-1.8,6.7-2.2c4.7-0.4,9.2,1,9.2,12.1
			C592.5,1043.5,590.5,1045.9,584.2,1045.7z M589.3,1007.2c-7.4,0-12.4,3.3-12.4,3.3v-23.1c0-0.6-0.5-1.1-1.1-1.1h-13.1
			c-0.6,0-1.1,0.5-1.1,1.1c0,0,0,0,0,0v68.3c0,0.6,0.5,1.1,1.1,1.1h9.1c0.4,0,0.7-0.2,0.9-0.6c0.2-0.4,0.6-3.1,0.6-3.1
			s5.3,5.1,15.5,5.1c11.9,0,18.7-6,18.7-27.1C607.6,1010,596.7,1007.2,589.3,1007.2 M446.2,1008.6h-9.8l0-12.9
			c0-0.5-0.3-0.7-0.8-0.7h-13.3c-0.5,0-0.8,0.2-0.8,0.7v13.4c0,0-6.7,1.6-7.1,1.7c-0.5,0.1-0.8,0.6-0.8,1v8.4c0,0.6,0.5,1.1,1.1,1.1
			h6.8v20.2c0,15,10.5,16.5,17.6,16.5c3.2,0,7.1-1,7.8-1.3c0.4-0.1,0.6-0.5,0.6-1l0-9.2c0-0.6-0.5-1.1-1.1-1.1c-0.6,0-2,0.2-3.5,0.2
			c-4.8,0-6.4-2.2-6.4-5.1l0-19.2h9.8c0.6,0,1.1-0.5,1.1-1.1v-10.5C447.2,1009.1,446.8,1008.6,446.2,1008.6
			C446.2,1008.6,446.2,1008.6,446.2,1008.6"/>
	</g>
	<path class="st4" d="M385.9,904.2c0,9,7.3,16.3,16.3,16.3h93.6c9,0,16.3-7.3,16.3-16.3v-93.6c0-9-7.3-16.3-16.3-16.3h-93.6
		c-9,0-16.3,7.3-16.3,16.3V904.2L385.9,904.2z"/>
	<path class="st5" d="M438.2,850.1v-17.9H454c1.5,0,2.9,0.1,4.3,0.4c1.4,0.2,2.6,0.7,3.7,1.3c1.1,0.6,1.9,1.5,2.6,2.7
		c0.6,1.1,1,2.6,1,4.4c0,3.2-1,5.5-2.9,7c-1.9,1.4-4.4,2.1-7.4,2.1H438.2L438.2,850.1z M421.5,819.2v76.4h37c3.4,0,6.8-0.4,10-1.3
		c3.2-0.9,6.1-2.2,8.7-4c2.5-1.8,4.5-4.1,6-6.9c1.5-2.8,2.2-6.2,2.2-10c0-4.8-1.2-8.9-3.5-12.3c-2.3-3.4-5.8-5.8-10.5-7.1
		c3.4-1.6,6-3.7,7.8-6.3c1.7-2.6,2.6-5.8,2.6-9.6c0-3.6-0.6-6.6-1.8-9c-1.2-2.4-2.8-4.4-5-5.8c-2.1-1.5-4.7-2.5-7.7-3.2
		c-3-0.6-6.3-1-10-1H421.5L421.5,819.2z M438.2,882.5v-21h18.3c3.6,0,6.6,0.8,8.8,2.5c2.2,1.7,3.3,4.5,3.3,8.4c0,2-0.3,3.6-1,4.9
		c-0.7,1.3-1.6,2.3-2.7,3c-1.1,0.7-2.5,1.3-4,1.6c-1.5,0.3-3.1,0.5-4.7,0.5H438.2L438.2,882.5z"/>
	<g class="st0">
		<path class="st6" d="M659.4,738.3c0-9-11.3-17.6-28.6-22.9c4-17.7,2.2-31.7-5.6-36.2c-1.8-1.1-3.9-1.6-6.2-1.6v6.2
			c1.3,0,2.3,0.2,3.2,0.7c3.8,2.2,5.4,10.4,4.1,21c-0.3,2.6-0.8,5.4-1.4,8.2c-5.4-1.3-11.4-2.4-17.6-3c-3.8-5.1-7.6-9.8-11.6-13.9
			c9.1-8.4,17.6-13,23.3-13v-6.2c-7.6,0-17.6,5.4-27.8,14.9c-10.1-9.4-20.1-14.8-27.8-14.8v6.2c5.8,0,14.3,4.6,23.3,12.9
			c-3.9,4.1-7.8,8.7-11.5,13.9c-6.3,0.7-12.2,1.7-17.7,3.1c-0.6-2.8-1.1-5.5-1.4-8.1c-1.3-10.6,0.3-18.9,4.1-21.1
			c0.8-0.5,1.9-0.7,3.2-0.7v-6.2c-2.3,0-4.4,0.5-6.3,1.6c-7.8,4.5-9.6,18.5-5.5,36.1c-17.3,5.3-28.5,13.9-28.5,22.9
			c0,9,11.3,17.6,28.6,22.9c-4,17.7-2.2,31.7,5.6,36.2c1.8,1.1,3.9,1.6,6.3,1.6c7.6,0,17.6-5.4,27.8-14.9
			c10.1,9.4,20.1,14.8,27.8,14.8c2.3,0,4.4-0.5,6.3-1.6c7.8-4.5,9.6-18.5,5.5-36.1C648.2,755.9,659.4,747.3,659.4,738.3L659.4,738.3
			z M623.3,719.8c-1,3.6-2.3,7.3-3.8,11c-1.1-2.2-2.3-4.4-3.6-6.7c-1.3-2.2-2.6-4.4-4-6.5C615.8,718.2,619.6,718.9,623.3,719.8
			L623.3,719.8z M610.5,749.4c-2.2,3.8-4.4,7.3-6.7,10.6c-4.1,0.4-8.3,0.6-12.6,0.6c-4.2,0-8.4-0.2-12.5-0.5
			c-2.3-3.3-4.6-6.8-6.7-10.6c-2.1-3.6-4-7.3-5.8-11.1c1.7-3.7,3.7-7.4,5.8-11.1c2.2-3.8,4.4-7.3,6.7-10.6c4.1-0.4,8.3-0.6,12.6-0.6
			c4.2,0,8.4,0.2,12.5,0.5c2.3,3.3,4.6,6.8,6.7,10.6c2.1,3.6,4,7.3,5.8,11.1C614.5,742,612.6,745.7,610.5,749.4L610.5,749.4z
			 M619.5,745.7c1.5,3.7,2.8,7.4,3.8,11.1c-3.6,0.9-7.5,1.6-11.4,2.2c1.4-2.1,2.7-4.3,4-6.6C617.2,750.2,618.4,748,619.5,745.7
			L619.5,745.7z M591.3,775.4c-2.6-2.7-5.2-5.6-7.7-8.9c2.5,0.1,5.1,0.2,7.6,0.2c2.6,0,5.2-0.1,7.7-0.2
			C596.5,769.7,593.9,772.7,591.3,775.4z M570.7,759c-3.9-0.6-7.8-1.3-11.4-2.2c1-3.6,2.3-7.3,3.8-11c1.1,2.2,2.3,4.4,3.6,6.7
			S569.3,756.9,570.7,759z M591.2,701.2c2.6,2.7,5.2,5.6,7.7,8.9c-2.5-0.1-5.1-0.2-7.6-0.2c-2.6,0-5.2,0.1-7.7,0.2
			C586.1,706.8,588.6,703.9,591.2,701.2z M570.6,717.6c-1.4,2.1-2.7,4.3-4,6.6c-1.3,2.2-2.5,4.4-3.6,6.7c-1.5-3.7-2.8-7.4-3.8-11.1
			C562.8,718.9,566.7,718.2,570.6,717.6L570.6,717.6z M545.5,752.4c-9.8-4.2-16.2-9.7-16.2-14.1s6.4-9.9,16.2-14.1
			c2.4-1,5-1.9,7.7-2.8c1.6,5.4,3.7,11.1,6.3,16.9c-2.6,5.8-4.6,11.4-6.2,16.8C550.5,754.3,547.9,753.4,545.5,752.4L545.5,752.4z
			 M560.4,792.1c-3.8-2.2-5.4-10.4-4.1-21c0.3-2.6,0.8-5.4,1.4-8.2c5.4,1.3,11.4,2.4,17.6,3c3.8,5.1,7.6,9.8,11.6,13.9
			c-9.1,8.4-17.6,13-23.3,13C562.3,792.8,561.3,792.5,560.4,792.1L560.4,792.1z M626.3,770.9c1.3,10.6-0.3,18.9-4.1,21.1
			c-0.8,0.5-1.9,0.7-3.2,0.7c-5.8,0-14.3-4.6-23.3-12.9c3.9-4.1,7.8-8.7,11.5-13.9c6.3-0.7,12.2-1.7,17.7-3.1
			C625.5,765.6,626,768.3,626.3,770.9z M637,752.4c-2.4,1-5,1.9-7.7,2.8c-1.6-5.4-3.7-11.1-6.3-16.9c2.6-5.8,4.6-11.4,6.2-16.8
			c2.8,0.9,5.4,1.8,7.8,2.8c9.8,4.2,16.2,9.7,16.2,14.1C653.2,742.7,646.9,748.2,637,752.4L637,752.4z"/>
		<circle class="st6" cx="591.2" cy="738.3" r="12.7"/>
	</g>
	<path class="st7" d="M106.7,998.4L96.3,871.8l123.8,0.3l-11,126.4l-50.5,14.6L106.7,998.4z"/>
	<path class="st8" d="M158.7,1000.8v-117l51,0.2l-9.1,104.7L158.7,1000.8z"/>
	<path class="st5" d="M195.6,913.1l1.4-15.5h-78.4L123,945h54.1l-2.1,20.2l-17.3,4.7l-17.6-5.1l-0.9-12.1h-15.6l2.1,24.6l31.9,8.9
		l32.2-8.9l4.3-48.1h-56.8l-1.6-16.2H195.6z"/>
	<path class="st9" d="M79.7,718.9L69,588.8l127.1,0.3l-11.3,129.8l-51.8,15L79.7,718.9z"/>
	<path class="st10" d="M133,721.3V601.2l52.3,0.2L176,708.9L133,721.3z"/>
	<path class="st5" d="M172.4,616.6H91.9l2.2,15.7h38.2l-37.6,16.1l2.2,15.2h55.4l-2,21.2l-18.8,3.7l-17-4.4l-1.3-12H97.5l2.1,25
		l33.5,9.3l32.1-10.2l4.1-48.9h-33.9l37-15.4L172.4,616.6z"/>
	<path class="st11" d="M350.7,721.1l-10.8-132.5l129.5,0.3l-11.5,132.2l-52.8,15.3L350.7,721.1z"/>
	<path class="st12" d="M405.1,723.6V601.2l53.3,0.2l-9.5,109.5L405.1,723.6z"/>
	<g class="st0">
		<path class="st13" d="M399.4,615.7h-14.1v81.4l-11-2.1v-11l-13.1-2.1v24.5l38.1,9.9V615.7z M410,615.7h39l-2.6,15.6h-21.5V657
			h21.5l-2.6,51.7l-33.8,7.8v-16.2l22.8-7.8l1.3-21.4l-24.2,3.5V615.7z"/>
	</g>
</g>
<g class="st0">
	<rect x="42" y="29.6" class="st1" width="624.4" height="496.5"/>
	<path class="st2" d="M210.8,246.6c0,22.8,13.2,42.4,32.4,51.7l-27.4-75.1C212.5,230.6,210.8,238.5,210.8,246.6z M307.1,243.7
		c0-7.1-2.6-12-4.7-15.9c-2.9-4.7-5.6-8.7-5.6-13.5c0-5.3,4-10.2,9.7-10.2c0.3,0,0.5,0,0.7,0c-10.2-9.4-23.9-15.1-38.8-15.1
		c-20.1,0-37.7,10.3-48,25.9c1.3,0,2.6,0.1,3.7,0.1c6,0,15.3-0.7,15.3-0.7c3.1-0.2,3.5,4.4,0.4,4.7c0,0-3.1,0.4-6.6,0.5l20.9,62.3
		l12.6-37.7l-9-24.5c-3.1-0.2-6-0.5-6-0.5c-3.1-0.2-2.7-4.9,0.4-4.7c0,0,9.5,0.7,15.1,0.7c6,0,15.3-0.7,15.3-0.7
		c3.1-0.2,3.5,4.4,0.4,4.7c0,0-3.1,0.4-6.6,0.5l20.8,61.8l5.7-19.2C305.2,254.3,307.1,248.6,307.1,243.7L307.1,243.7z M269.3,251.6
		l-17.2,50.1c5.3,1.6,10.7,2.3,16.2,2.3c6.7,0,13.1-1.2,19.1-3.3c-0.2-0.3-0.3-0.5-0.4-0.8L269.3,251.6L269.3,251.6z M318.8,219
		c0.2,1.8,0.4,3.8,0.4,5.9c0,5.8-1.1,12.4-4.4,20.6l-17.6,50.8c17.1-10,28.6-28.5,28.6-49.7C325.8,236.6,323.2,227.2,318.8,219
		L318.8,219z M268.3,179.6c-36.9,0-67,30.1-67,67c0,36.9,30.1,67,67,67c36.9,0,67-30.1,67-67C335.3,209.7,305.3,179.6,268.3,179.6
		L268.3,179.6z M268.3,310.5c-35.3,0-63.9-28.7-63.9-63.9c0-35.3,28.7-63.9,63.9-63.9c35.2,0,63.9,28.7,63.9,63.9
		C332.2,281.8,303.6,310.5,268.3,310.5z"/>
	<g class="st0">
		<path class="st3" d="M385,483.5h-23.2c-0.6,0-1.1,0.5-1.1,1.1v11.3c0,0.6,0.5,1.1,1.1,1.1h9v14.1c0,0-2,0.7-7.6,0.7
			c-6.6,0-15.9-2.4-15.9-22.7c0-20.3,9.6-23,18.7-23c7.8,0,11.2,1.4,13.3,2c0.7,0.2,1.3-0.5,1.3-1.1l2.6-10.9c0-0.3-0.1-0.6-0.4-0.8
			c-0.9-0.6-6.2-3.6-19.6-3.6c-15.5,0-31.3,6.6-31.3,38.2c0,31.6,18.2,36.3,33.5,36.3c12.7,0,20.4-5.4,20.4-5.4
			c0.3-0.2,0.4-0.6,0.4-0.8v-35.3C386.1,484,385.6,483.5,385,483.5 M504.4,455.4c0-0.6-0.5-1.1-1.1-1.1c0,0,0,0,0,0h-13
			c-0.6,0-1.1,0.5-1.1,1.1c0,0,0,0,0,0l0,25.2h-20.3v-25.2c0-0.6-0.5-1.1-1.1-1.1c0,0,0,0,0,0h-13c-0.6,0-1.1,0.5-1.1,1.1v68.3
			c0,0.6,0.5,1.1,1.1,1.1h13c0.6,0,1.1-0.5,1.1-1.1v-29.2h20.3l0,29.2c0,0.6,0.5,1.1,1.1,1.1h13.1c0.6,0,1.1-0.5,1.1-1.1
			L504.4,455.4 M409.6,464.3c0-4.7-3.8-8.5-8.4-8.5c-4.6,0-8.4,3.8-8.4,8.5c0,4.7,3.8,8.5,8.4,8.5
			C405.8,472.8,409.6,469,409.6,464.3 M408.7,509.2v-31.5c0-0.6-0.5-1.1-1.1-1.1h-13c-0.6,0-1.1,0.6-1.1,1.2V523
			c0,1.3,0.8,1.7,1.9,1.7h11.7c1.3,0,1.6-0.6,1.6-1.7L408.7,509.2 M553.9,476.7H541c-0.6,0-1.1,0.5-1.1,1.1v33.5c0,0-3.3,2.4-8,2.4
			c-4.7,0-5.9-2.1-5.9-6.7v-29.2c0-0.6-0.5-1.1-1.1-1.1h-13.1c-0.6,0-1.1,0.5-1.1,1.1v31.4c0,13.6,7.6,16.9,18,16.9
			c8.5,0,15.4-4.7,15.4-4.7s0.3,2.5,0.5,2.8c0.1,0.3,0.5,0.6,1,0.6l8.4,0c0.6,0,1.1-0.5,1.1-1.1l0-45.8
			C555,477.2,554.5,476.7,553.9,476.7 M584.2,513.7c-4.5-0.1-7.5-2.2-7.5-2.2v-21.6c0,0,3-1.8,6.7-2.2c4.7-0.4,9.2,1,9.2,12.1
			C592.5,511.5,590.5,513.9,584.2,513.7z M589.3,475.2c-7.4,0-12.4,3.3-12.4,3.3v-23.1c0-0.6-0.5-1.1-1.1-1.1h-13.1
			c-0.6,0-1.1,0.5-1.1,1.1c0,0,0,0,0,0v68.3c0,0.6,0.5,1.1,1.1,1.1h9.1c0.4,0,0.7-0.2,0.9-0.6c0.2-0.4,0.6-3.1,0.6-3.1
			s5.3,5.1,15.5,5.1c11.9,0,18.7-6,18.7-27.1C607.6,478,596.7,475.2,589.3,475.2 M446.2,476.6h-9.8l0-12.9c0-0.5-0.3-0.7-0.8-0.7
			h-13.3c-0.5,0-0.8,0.2-0.8,0.7v13.4c0,0-6.7,1.6-7.1,1.7c-0.5,0.1-0.8,0.6-0.8,1v8.4c0,0.6,0.5,1.1,1.1,1.1h6.8v20.2
			c0,15,10.5,16.5,17.6,16.5c3.2,0,7.1-1,7.8-1.3c0.4-0.1,0.6-0.5,0.6-1l0-9.2c0-0.6-0.5-1.1-1.1-1.1c-0.6,0-2,0.2-3.5,0.2
			c-4.8,0-6.4-2.2-6.4-5.1l0-19.2h9.8c0.6,0,1.1-0.5,1.1-1.1v-10.5C447.2,477.1,446.8,476.6,446.2,476.6
			C446.2,476.6,446.2,476.6,446.2,476.6"/>
	</g>
	<path class="st4" d="M385.9,372.2c0,9,7.3,16.3,16.3,16.3h93.6c9,0,16.3-7.3,16.3-16.3v-93.6c0-9-7.3-16.3-16.3-16.3h-93.6
		c-9,0-16.3,7.3-16.3,16.3V372.2L385.9,372.2z"/>
	<path class="st5" d="M438.2,318.1v-17.9H454c1.5,0,2.9,0.1,4.3,0.4c1.4,0.2,2.6,0.7,3.7,1.3c1.1,0.6,1.9,1.5,2.6,2.7
		c0.6,1.1,1,2.6,1,4.4c0,3.2-1,5.5-2.9,7c-1.9,1.4-4.4,2.1-7.4,2.1H438.2L438.2,318.1z M421.5,287.2v76.4h37c3.4,0,6.8-0.4,10-1.3
		c3.2-0.9,6.1-2.2,8.7-4c2.5-1.8,4.5-4.1,6-6.9c1.5-2.8,2.2-6.2,2.2-10c0-4.8-1.2-8.9-3.5-12.3c-2.3-3.4-5.8-5.8-10.5-7.1
		c3.4-1.6,6-3.7,7.8-6.3c1.7-2.6,2.6-5.8,2.6-9.6c0-3.6-0.6-6.6-1.8-9c-1.2-2.4-2.8-4.4-5-5.8c-2.1-1.5-4.7-2.5-7.7-3.2
		c-3-0.6-6.3-1-10-1H421.5L421.5,287.2z M438.2,350.5v-21h18.3c3.6,0,6.6,0.8,8.8,2.5c2.2,1.7,3.3,4.5,3.3,8.4c0,2-0.3,3.6-1,4.9
		c-0.7,1.3-1.6,2.3-2.7,3c-1.1,0.7-2.5,1.3-4,1.6c-1.5,0.3-3.1,0.5-4.7,0.5H438.2L438.2,350.5z"/>
	<g class="st0">
		<path class="st6" d="M659.4,206.3c0-9-11.3-17.6-28.6-22.9c4-17.7,2.2-31.7-5.6-36.2c-1.8-1.1-3.9-1.6-6.2-1.6v6.2
			c1.3,0,2.3,0.3,3.2,0.7c3.8,2.2,5.4,10.4,4.1,21c-0.3,2.6-0.8,5.4-1.4,8.2c-5.4-1.3-11.4-2.4-17.6-3c-3.8-5.1-7.6-9.8-11.6-13.9
			c9.1-8.4,17.6-13,23.3-13v-6.2c-7.6,0-17.6,5.4-27.8,14.9c-10.1-9.4-20.1-14.8-27.8-14.8v6.2c5.8,0,14.3,4.6,23.3,12.9
			c-3.9,4.1-7.8,8.7-11.5,13.9c-6.3,0.7-12.2,1.7-17.7,3.1c-0.6-2.8-1.1-5.5-1.4-8.1c-1.3-10.6,0.3-18.9,4.1-21.1
			c0.8-0.5,1.9-0.7,3.2-0.7v-6.2c-2.3,0-4.4,0.5-6.3,1.6c-7.8,4.5-9.6,18.5-5.5,36.1c-17.3,5.3-28.5,13.9-28.5,22.9
			c0,9,11.3,17.6,28.6,22.9c-4,17.7-2.2,31.7,5.6,36.2c1.8,1.1,3.9,1.6,6.3,1.6c7.6,0,17.6-5.4,27.8-14.9
			c10.1,9.4,20.1,14.8,27.8,14.8c2.3,0,4.4-0.5,6.3-1.6c7.8-4.5,9.6-18.5,5.5-36.1C648.2,223.9,659.4,215.3,659.4,206.3L659.4,206.3
			z M623.3,187.8c-1,3.6-2.3,7.3-3.8,11c-1.1-2.2-2.3-4.4-3.6-6.7c-1.3-2.2-2.6-4.4-4-6.5C615.8,186.2,619.6,186.9,623.3,187.8
			L623.3,187.8z M610.5,217.4c-2.2,3.8-4.4,7.3-6.7,10.6c-4.1,0.4-8.3,0.6-12.6,0.6c-4.2,0-8.4-0.2-12.5-0.5
			c-2.3-3.3-4.6-6.8-6.7-10.6c-2.1-3.6-4-7.3-5.8-11.1c1.7-3.7,3.7-7.4,5.8-11.1c2.2-3.8,4.4-7.3,6.7-10.6c4.1-0.4,8.3-0.6,12.6-0.6
			c4.2,0,8.4,0.2,12.5,0.5c2.3,3.3,4.6,6.8,6.7,10.6c2.1,3.6,4,7.3,5.8,11.1C614.5,210,612.6,213.7,610.5,217.4L610.5,217.4z
			 M619.5,213.7c1.5,3.7,2.8,7.4,3.8,11.1c-3.6,0.9-7.5,1.6-11.4,2.2c1.4-2.1,2.7-4.3,4-6.6C617.2,218.2,618.4,216,619.5,213.7
			L619.5,213.7z M591.3,243.4c-2.6-2.7-5.2-5.6-7.7-8.9c2.5,0.1,5.1,0.2,7.6,0.2c2.6,0,5.2-0.1,7.7-0.2
			C596.5,237.7,593.9,240.7,591.3,243.4z M570.7,227c-3.9-0.6-7.8-1.3-11.4-2.2c1-3.6,2.3-7.3,3.8-11c1.1,2.2,2.3,4.4,3.6,6.7
			C568,222.7,569.3,224.9,570.7,227z M591.2,169.2c2.6,2.7,5.2,5.6,7.7,8.9c-2.5-0.1-5.1-0.2-7.6-0.2c-2.6,0-5.2,0.1-7.7,0.2
			C586.1,174.8,588.6,171.9,591.2,169.2z M570.6,185.6c-1.4,2.1-2.7,4.3-4,6.6c-1.3,2.2-2.5,4.4-3.6,6.7c-1.5-3.7-2.8-7.4-3.8-11.1
			C562.8,186.9,566.7,186.2,570.6,185.6L570.6,185.6z M545.5,220.4c-9.8-4.2-16.2-9.7-16.2-14.1c0-4.4,6.4-9.9,16.2-14.1
			c2.4-1,5-1.9,7.7-2.8c1.6,5.4,3.7,11.1,6.3,16.9c-2.6,5.8-4.6,11.4-6.2,16.8C550.5,222.3,547.9,221.4,545.5,220.4L545.5,220.4z
			 M560.4,260.1c-3.8-2.2-5.4-10.4-4.1-21c0.3-2.6,0.8-5.4,1.4-8.2c5.4,1.3,11.4,2.4,17.6,3c3.8,5.1,7.6,9.8,11.6,13.9
			c-9.1,8.4-17.6,13-23.3,13C562.3,260.8,561.3,260.5,560.4,260.1L560.4,260.1z M626.3,238.9c1.3,10.6-0.3,18.9-4.1,21.1
			c-0.8,0.5-1.9,0.7-3.2,0.7c-5.8,0-14.3-4.6-23.3-12.9c3.9-4.1,7.8-8.7,11.5-13.9c6.3-0.7,12.2-1.7,17.7-3.1
			C625.5,233.6,626,236.3,626.3,238.9z M637,220.4c-2.4,1-5,1.9-7.7,2.8c-1.6-5.4-3.7-11.1-6.3-16.9c2.6-5.8,4.6-11.4,6.2-16.8
			c2.8,0.9,5.4,1.8,7.8,2.8c9.8,4.2,16.2,9.7,16.2,14.1C653.2,210.7,646.9,216.2,637,220.4L637,220.4z"/>
		<circle class="st6" cx="591.2" cy="206.3" r="12.7"/>
	</g>
	<path class="st7" d="M106.7,466.4L96.3,339.8l123.8,0.3l-11,126.4l-50.5,14.6L106.7,466.4z"/>
	<path class="st8" d="M158.7,468.8v-117l51,0.2l-9.1,104.7L158.7,468.8z"/>
	<path class="st5" d="M195.6,381.1l1.4-15.5h-78.4L123,413h54.1l-2.1,20.2l-17.3,4.7l-17.6-5.1l-0.9-12.1h-15.6l2.1,24.6l31.9,8.9
		l32.2-8.9l4.3-48.1h-56.8l-1.6-16.2H195.6z"/>
	<path class="st9" d="M79.7,186.9L69,56.8l127.1,0.3l-11.3,129.8l-51.8,15L79.7,186.9z"/>
	<path class="st10" d="M133,189.3V69.2l52.3,0.2L176,176.9L133,189.3z"/>
	<path class="st5" d="M172.4,84.6H91.9l2.2,15.7h38.2l-37.6,16.1l2.2,15.2h55.4l-2,21.2l-18.8,3.7l-17-4.4l-1.3-12H97.5l2.1,25
		l33.5,9.3l32.1-10.2l4.1-48.9h-33.9l37-15.4L172.4,84.6z"/>
	<path class="st11" d="M350.7,189.1L339.9,56.6l129.5,0.3l-11.5,132.2l-52.8,15.3L350.7,189.1z"/>
	<path class="st12" d="M405.1,191.6V69.2l53.3,0.2l-9.5,109.5L405.1,191.6z"/>
	<g class="st0">
		<path class="st13" d="M399.4,83.7h-14.1v81.4l-11-2.1v-11l-13.1-2.1v24.5l38.1,9.9V83.7z M410,83.7h39l-2.6,15.6h-21.5V125h21.5
			l-2.6,51.7l-33.8,7.8v-16.2l22.8-7.8l1.3-21.4l-24.2,3.5V83.7z"/>
	</g>
</g>
<g class="st0">
	<rect x="666" y="29.6" class="st1" width="624.4" height="496.5"/>
	<path class="st2" d="M834.8,246.6c0,22.8,13.2,42.4,32.4,51.7l-27.4-75.1C836.5,230.6,834.8,238.5,834.8,246.6z M931.1,243.7
		c0-7.1-2.6-12-4.7-15.9c-2.9-4.7-5.6-8.7-5.6-13.5c0-5.3,4-10.2,9.7-10.2c0.3,0,0.5,0,0.7,0c-10.2-9.4-23.9-15.1-38.8-15.1
		c-20.1,0-37.7,10.3-48,25.9c1.3,0,2.6,0.1,3.7,0.1c6,0,15.3-0.7,15.3-0.7c3.1-0.2,3.5,4.4,0.4,4.7c0,0-3.1,0.4-6.6,0.5l20.9,62.3
		l12.6-37.7l-9-24.5c-3.1-0.2-6-0.5-6-0.5c-3.1-0.2-2.7-4.9,0.4-4.7c0,0,9.5,0.7,15.1,0.7c6,0,15.3-0.7,15.3-0.7
		c3.1-0.2,3.5,4.4,0.4,4.7c0,0-3.1,0.4-6.6,0.5l20.8,61.8l5.7-19.2C929.2,254.3,931.1,248.6,931.1,243.7L931.1,243.7z M893.3,251.6
		l-17.2,50.1c5.3,1.6,10.7,2.3,16.2,2.3c6.7,0,13.1-1.2,19.1-3.3c-0.2-0.3-0.3-0.5-0.4-0.8L893.3,251.6L893.3,251.6z M942.8,219
		c0.2,1.8,0.4,3.8,0.4,5.9c0,5.8-1.1,12.4-4.4,20.6l-17.6,50.8c17.1-10,28.6-28.5,28.6-49.7C949.8,236.6,947.2,227.2,942.8,219
		L942.8,219z M892.3,179.6c-36.9,0-67,30.1-67,67c0,36.9,30.1,67,67,67c36.9,0,67-30.1,67-67C959.3,209.7,929.3,179.6,892.3,179.6
		L892.3,179.6z M892.3,310.5c-35.3,0-63.9-28.7-63.9-63.9c0-35.3,28.7-63.9,63.9-63.9c35.2,0,63.9,28.7,63.9,63.9
		C956.2,281.8,927.6,310.5,892.3,310.5z"/>
	<g class="st0">
		<path class="st3" d="M1009,483.5h-23.2c-0.6,0-1.1,0.5-1.1,1.1v11.3c0,0.6,0.5,1.1,1.1,1.1h9v14.1c0,0-2,0.7-7.6,0.7
			c-6.6,0-15.9-2.4-15.9-22.7c0-20.3,9.6-23,18.7-23c7.8,0,11.2,1.4,13.3,2c0.7,0.2,1.3-0.5,1.3-1.1l2.6-10.9c0-0.3-0.1-0.6-0.4-0.8
			c-0.9-0.6-6.2-3.6-19.6-3.6c-15.5,0-31.3,6.6-31.3,38.2c0,31.6,18.2,36.3,33.5,36.3c12.7,0,20.4-5.4,20.4-5.4
			c0.3-0.2,0.4-0.6,0.4-0.8v-35.3C1010.1,484,1009.6,483.5,1009,483.5 M1128.4,455.4c0-0.6-0.5-1.1-1.1-1.1c0,0,0,0,0,0h-13
			c-0.6,0-1.1,0.5-1.1,1.1c0,0,0,0,0,0l0,25.2h-20.3v-25.2c0-0.6-0.5-1.1-1.1-1.1c0,0,0,0,0,0h-13c-0.6,0-1.1,0.5-1.1,1.1v68.3
			c0,0.6,0.5,1.1,1.1,1.1h13c0.6,0,1.1-0.5,1.1-1.1v-29.2h20.3l0,29.2c0,0.6,0.5,1.1,1.1,1.1h13.1c0.6,0,1.1-0.5,1.1-1.1V455.4
			 M1033.6,464.3c0-4.7-3.8-8.5-8.4-8.5c-4.6,0-8.4,3.8-8.4,8.5c0,4.7,3.8,8.5,8.4,8.5C1029.8,472.8,1033.6,469,1033.6,464.3
			 M1032.7,509.2v-31.5c0-0.6-0.5-1.1-1.1-1.1h-13c-0.6,0-1.1,0.6-1.1,1.2V523c0,1.3,0.8,1.7,1.9,1.7h11.7c1.3,0,1.6-0.6,1.6-1.7
			V509.2 M1177.9,476.7H1165c-0.6,0-1.1,0.5-1.1,1.1v33.5c0,0-3.3,2.4-8,2.4c-4.7,0-5.9-2.1-5.9-6.7v-29.2c0-0.6-0.5-1.1-1.1-1.1
			h-13.1c-0.6,0-1.1,0.5-1.1,1.1v31.4c0,13.6,7.6,16.9,18,16.9c8.5,0,15.4-4.7,15.4-4.7s0.3,2.5,0.5,2.8c0.1,0.3,0.5,0.6,1,0.6
			l8.4,0c0.6,0,1.1-0.5,1.1-1.1l0-45.8C1179,477.2,1178.5,476.7,1177.9,476.7 M1208.2,513.7c-4.5-0.1-7.5-2.2-7.5-2.2v-21.6
			c0,0,3-1.8,6.7-2.2c4.7-0.4,9.2,1,9.2,12.1C1216.5,511.5,1214.5,513.9,1208.2,513.7z M1213.3,475.2c-7.4,0-12.4,3.3-12.4,3.3
			v-23.1c0-0.6-0.5-1.1-1.1-1.1h-13.1c-0.6,0-1.1,0.5-1.1,1.1c0,0,0,0,0,0v68.3c0,0.6,0.5,1.1,1.1,1.1h9.1c0.4,0,0.7-0.2,0.9-0.6
			c0.2-0.4,0.6-3.1,0.6-3.1s5.3,5.1,15.5,5.1c11.9,0,18.7-6,18.7-27.1C1231.6,478,1220.7,475.2,1213.3,475.2 M1070.2,476.6h-9.8
			l0-12.9c0-0.5-0.3-0.7-0.8-0.7h-13.3c-0.5,0-0.8,0.2-0.8,0.7v13.4c0,0-6.7,1.6-7.1,1.7c-0.5,0.1-0.8,0.6-0.8,1v8.4
			c0,0.6,0.5,1.1,1.1,1.1h6.8v20.2c0,15,10.5,16.5,17.6,16.5c3.2,0,7.1-1,7.8-1.3c0.4-0.1,0.6-0.5,0.6-1l0-9.2
			c0-0.6-0.5-1.1-1.1-1.1c-0.6,0-2,0.2-3.5,0.2c-4.8,0-6.4-2.2-6.4-5.1l0-19.2h9.8c0.6,0,1.1-0.5,1.1-1.1v-10.5
			C1071.2,477.1,1070.8,476.6,1070.2,476.6C1070.2,476.6,1070.2,476.6,1070.2,476.6"/>
	</g>
	<path class="st4" d="M1009.9,372.2c0,9,7.3,16.3,16.3,16.3h93.6c9,0,16.3-7.3,16.3-16.3v-93.6c0-9-7.3-16.3-16.3-16.3h-93.6
		c-9,0-16.3,7.3-16.3,16.3V372.2L1009.9,372.2z"/>
	<path class="st5" d="M1062.2,318.1v-17.9h15.7c1.5,0,2.9,0.1,4.3,0.4c1.4,0.2,2.6,0.7,3.7,1.3c1.1,0.6,1.9,1.5,2.6,2.7
		c0.6,1.1,1,2.6,1,4.4c0,3.2-1,5.5-2.9,7c-1.9,1.4-4.4,2.1-7.4,2.1H1062.2L1062.2,318.1z M1045.5,287.2v76.4h37
		c3.4,0,6.8-0.4,10-1.3s6.1-2.2,8.7-4c2.5-1.8,4.5-4.1,6-6.9c1.5-2.8,2.2-6.2,2.2-10c0-4.8-1.2-8.9-3.5-12.3
		c-2.3-3.4-5.8-5.8-10.5-7.1c3.4-1.6,6-3.7,7.8-6.3c1.7-2.6,2.6-5.8,2.6-9.6c0-3.6-0.6-6.6-1.8-9c-1.2-2.4-2.8-4.4-5-5.8
		c-2.1-1.5-4.7-2.5-7.7-3.2c-3-0.6-6.3-1-10-1H1045.5L1045.5,287.2z M1062.2,350.5v-21h18.3c3.6,0,6.6,0.8,8.8,2.5
		c2.2,1.7,3.3,4.5,3.3,8.4c0,2-0.3,3.6-1,4.9c-0.7,1.3-1.6,2.3-2.7,3c-1.1,0.7-2.5,1.3-4,1.6c-1.5,0.3-3.1,0.5-4.7,0.5H1062.2
		L1062.2,350.5z"/>
	<g class="st0">
		<path class="st6" d="M1283.4,206.3c0-9-11.3-17.6-28.6-22.9c4-17.7,2.2-31.7-5.6-36.2c-1.8-1.1-3.9-1.6-6.2-1.6v6.2
			c1.3,0,2.3,0.3,3.2,0.7c3.8,2.2,5.4,10.4,4.1,21c-0.3,2.6-0.8,5.4-1.4,8.2c-5.4-1.3-11.4-2.4-17.6-3c-3.8-5.1-7.6-9.8-11.6-13.9
			c9.1-8.4,17.6-13,23.3-13v-6.2c-7.6,0-17.6,5.4-27.8,14.9c-10.1-9.4-20.1-14.8-27.8-14.8v6.2c5.8,0,14.3,4.6,23.3,12.9
			c-3.9,4.1-7.8,8.7-11.5,13.9c-6.3,0.7-12.2,1.7-17.7,3.1c-0.6-2.8-1.1-5.5-1.4-8.1c-1.3-10.6,0.3-18.9,4.1-21.1
			c0.8-0.5,1.9-0.7,3.2-0.7v-6.2c-2.3,0-4.4,0.5-6.3,1.6c-7.8,4.5-9.6,18.5-5.5,36.1c-17.3,5.3-28.5,13.9-28.5,22.9
			c0,9,11.3,17.6,28.6,22.9c-4,17.7-2.2,31.7,5.6,36.2c1.8,1.1,3.9,1.6,6.3,1.6c7.6,0,17.6-5.4,27.8-14.9
			c10.1,9.4,20.1,14.8,27.8,14.8c2.3,0,4.4-0.5,6.3-1.6c7.8-4.5,9.6-18.5,5.5-36.1C1272.2,223.9,1283.4,215.3,1283.4,206.3
			L1283.4,206.3z M1247.3,187.8c-1,3.6-2.3,7.3-3.8,11c-1.1-2.2-2.3-4.4-3.6-6.7c-1.3-2.2-2.6-4.4-4-6.5
			C1239.8,186.2,1243.6,186.9,1247.3,187.8L1247.3,187.8z M1234.5,217.4c-2.2,3.8-4.4,7.3-6.7,10.6c-4.1,0.4-8.3,0.6-12.6,0.6
			c-4.2,0-8.4-0.2-12.5-0.5c-2.3-3.3-4.6-6.8-6.7-10.6c-2.1-3.6-4-7.3-5.8-11.1c1.7-3.7,3.7-7.4,5.8-11.1c2.2-3.8,4.4-7.3,6.7-10.6
			c4.1-0.4,8.3-0.6,12.6-0.6c4.2,0,8.4,0.2,12.5,0.5c2.3,3.3,4.6,6.8,6.7,10.6c2.1,3.6,4,7.3,5.8,11.1
			C1238.5,210,1236.6,213.7,1234.5,217.4L1234.5,217.4z M1243.5,213.7c1.5,3.7,2.8,7.4,3.8,11.1c-3.6,0.9-7.5,1.6-11.4,2.2
			c1.4-2.1,2.7-4.3,4-6.6C1241.2,218.2,1242.4,216,1243.5,213.7L1243.5,213.7z M1215.3,243.4c-2.6-2.7-5.2-5.6-7.7-8.9
			c2.5,0.1,5.1,0.2,7.6,0.2c2.6,0,5.2-0.1,7.7-0.2C1220.5,237.7,1217.9,240.7,1215.3,243.4z M1194.7,227c-3.9-0.6-7.8-1.3-11.4-2.2
			c1-3.6,2.3-7.3,3.8-11c1.1,2.2,2.3,4.4,3.6,6.7C1192,222.7,1193.3,224.9,1194.7,227z M1215.2,169.2c2.6,2.7,5.2,5.6,7.7,8.9
			c-2.5-0.1-5.1-0.2-7.6-0.2c-2.6,0-5.2,0.1-7.7,0.2C1210.1,174.8,1212.6,171.9,1215.2,169.2z M1194.6,185.6c-1.4,2.1-2.7,4.3-4,6.6
			c-1.3,2.2-2.5,4.4-3.6,6.7c-1.5-3.7-2.8-7.4-3.8-11.1C1186.8,186.9,1190.7,186.2,1194.6,185.6L1194.6,185.6z M1169.5,220.4
			c-9.8-4.2-16.2-9.7-16.2-14.1c0-4.4,6.4-9.9,16.2-14.1c2.4-1,5-1.9,7.7-2.8c1.6,5.4,3.7,11.1,6.3,16.9c-2.6,5.8-4.6,11.4-6.2,16.8
			C1174.5,222.3,1171.9,221.4,1169.5,220.4L1169.5,220.4z M1184.4,260.1c-3.8-2.2-5.4-10.4-4.1-21c0.3-2.6,0.8-5.4,1.4-8.2
			c5.4,1.3,11.4,2.4,17.6,3c3.8,5.1,7.6,9.8,11.6,13.9c-9.1,8.4-17.6,13-23.3,13C1186.3,260.8,1185.3,260.5,1184.4,260.1
			L1184.4,260.1z M1250.3,238.9c1.3,10.6-0.3,18.9-4.1,21.1c-0.8,0.5-1.9,0.7-3.2,0.7c-5.8,0-14.3-4.6-23.3-12.9
			c3.9-4.1,7.8-8.7,11.5-13.9c6.3-0.7,12.2-1.7,17.7-3.1C1249.5,233.6,1250,236.3,1250.3,238.9z M1261,220.4c-2.4,1-5,1.9-7.7,2.8
			c-1.6-5.4-3.7-11.1-6.3-16.9c2.6-5.8,4.6-11.4,6.2-16.8c2.8,0.9,5.4,1.8,7.8,2.8c9.8,4.2,16.2,9.7,16.2,14.1
			C1277.2,210.7,1270.9,216.2,1261,220.4L1261,220.4z"/>
		<circle class="st6" cx="1215.2" cy="206.3" r="12.7"/>
	</g>
	<path class="st7" d="M730.7,466.4l-10.4-126.7l123.8,0.3l-11,126.4l-50.5,14.6L730.7,466.4z"/>
	<path class="st8" d="M782.7,468.8v-117l51,0.2l-9.1,104.7L782.7,468.8z"/>
	<path class="st5" d="M819.6,381.1l1.4-15.5h-78.4L747,413h54.1l-2.1,20.2l-17.3,4.7l-17.6-5.1l-0.9-12.1h-15.6l2.1,24.6l31.9,8.9
		l32.2-8.9l4.3-48.1h-56.8l-1.6-16.2H819.6z"/>
	<path class="st9" d="M703.7,186.9L693,56.8l127.1,0.3l-11.3,129.8l-51.8,15L703.7,186.9z"/>
	<path class="st10" d="M757,189.3V69.2l52.3,0.2L800,176.9L757,189.3z"/>
	<path class="st5" d="M796.4,84.6h-80.5l2.2,15.7h38.2l-37.6,16.1l2.2,15.2h55.4l-2,21.2l-18.8,3.7l-17-4.4l-1.3-12h-15.6l2.1,25
		l33.5,9.3l32.1-10.2l4.1-48.9h-33.9l37-15.4L796.4,84.6z"/>
	<path class="st11" d="M974.7,189.1L963.9,56.6l129.5,0.3l-11.5,132.2l-52.8,15.3L974.7,189.1z"/>
	<path class="st12" d="M1029.1,191.6V69.2l53.3,0.2l-9.5,109.5L1029.1,191.6z"/>
	<g class="st0">
		<path class="st13" d="M1023.4,83.7h-14.1v81.4l-11-2.1v-11l-13.1-2.1v24.5l38.1,9.9V83.7z M1034,83.7h39l-2.6,15.6h-21.5V125h21.5
			l-2.6,51.7l-33.8,7.8v-16.2l22.8-7.8l1.3-21.4l-24.2,3.5V83.7z"/>
	</g>
</g>
<g class="st0">
	<rect x="1298" y="29.6" class="st1" width="624.4" height="496.5"/>
	<path class="st2" d="M1466.8,246.6c0,22.8,13.2,42.4,32.4,51.7l-27.4-75.1C1468.5,230.6,1466.8,238.5,1466.8,246.6z M1563.1,243.7
		c0-7.1-2.6-12-4.7-15.9c-2.9-4.7-5.6-8.7-5.6-13.5c0-5.3,4-10.2,9.7-10.2c0.3,0,0.5,0,0.7,0c-10.2-9.4-23.9-15.1-38.8-15.1
		c-20.1,0-37.7,10.3-48,25.9c1.3,0,2.6,0.1,3.7,0.1c6,0,15.3-0.7,15.3-0.7c3.1-0.2,3.5,4.4,0.4,4.7c0,0-3.1,0.4-6.6,0.5l20.9,62.3
		l12.6-37.7l-9-24.5c-3.1-0.2-6-0.5-6-0.5c-3.1-0.2-2.7-4.9,0.4-4.7c0,0,9.5,0.7,15.1,0.7c6,0,15.3-0.7,15.3-0.7
		c3.1-0.2,3.5,4.4,0.4,4.7c0,0-3.1,0.4-6.6,0.5l20.8,61.8l5.7-19.2C1561.2,254.3,1563.1,248.6,1563.1,243.7L1563.1,243.7z
		 M1525.3,251.6l-17.2,50.1c5.3,1.6,10.7,2.3,16.2,2.3c6.7,0,13.1-1.2,19.1-3.3c-0.2-0.3-0.3-0.5-0.4-0.8L1525.3,251.6L1525.3,251.6
		z M1574.8,219c0.2,1.8,0.4,3.8,0.4,5.9c0,5.8-1.1,12.4-4.4,20.6l-17.6,50.8c17.1-10,28.6-28.5,28.6-49.7
		C1581.8,236.6,1579.2,227.2,1574.8,219L1574.8,219z M1524.3,179.6c-36.9,0-67,30.1-67,67c0,36.9,30.1,67,67,67
		c36.9,0,67-30.1,67-67C1591.3,209.7,1561.3,179.6,1524.3,179.6L1524.3,179.6z M1524.3,310.5c-35.3,0-63.9-28.7-63.9-63.9
		c0-35.3,28.7-63.9,63.9-63.9c35.2,0,63.9,28.7,63.9,63.9C1588.2,281.8,1559.6,310.5,1524.3,310.5z"/>
	<g class="st0">
		<path class="st3" d="M1641,483.5h-23.2c-0.6,0-1.1,0.5-1.1,1.1v11.3c0,0.6,0.5,1.1,1.1,1.1h9v14.1c0,0-2,0.7-7.6,0.7
			c-6.6,0-15.9-2.4-15.9-22.7c0-20.3,9.6-23,18.7-23c7.8,0,11.2,1.4,13.3,2c0.7,0.2,1.3-0.5,1.3-1.1l2.6-10.9c0-0.3-0.1-0.6-0.4-0.8
			c-0.9-0.6-6.2-3.6-19.6-3.6c-15.5,0-31.3,6.6-31.3,38.2c0,31.6,18.2,36.3,33.5,36.3c12.7,0,20.4-5.4,20.4-5.4
			c0.3-0.2,0.4-0.6,0.4-0.8v-35.3C1642.1,484,1641.6,483.5,1641,483.5 M1760.4,455.4c0-0.6-0.5-1.1-1.1-1.1c0,0,0,0,0,0h-13
			c-0.6,0-1.1,0.5-1.1,1.1c0,0,0,0,0,0l0,25.2h-20.3v-25.2c0-0.6-0.5-1.1-1.1-1.1c0,0,0,0,0,0h-13c-0.6,0-1.1,0.5-1.1,1.1v68.3
			c0,0.6,0.5,1.1,1.1,1.1h13c0.6,0,1.1-0.5,1.1-1.1v-29.2h20.3l0,29.2c0,0.6,0.5,1.1,1.1,1.1h13.1c0.6,0,1.1-0.5,1.1-1.1V455.4
			 M1665.6,464.3c0-4.7-3.8-8.5-8.4-8.5c-4.6,0-8.4,3.8-8.4,8.5c0,4.7,3.8,8.5,8.4,8.5C1661.8,472.8,1665.6,469,1665.6,464.3
			 M1664.7,509.2v-31.5c0-0.6-0.5-1.1-1.1-1.1h-13c-0.6,0-1.1,0.6-1.1,1.2V523c0,1.3,0.8,1.7,1.9,1.7h11.7c1.3,0,1.6-0.6,1.6-1.7
			V509.2 M1809.9,476.7H1797c-0.6,0-1.1,0.5-1.1,1.1v33.5c0,0-3.3,2.4-8,2.4c-4.7,0-5.9-2.1-5.9-6.7v-29.2c0-0.6-0.5-1.1-1.1-1.1
			h-13.1c-0.6,0-1.1,0.5-1.1,1.1v31.4c0,13.6,7.6,16.9,18,16.9c8.5,0,15.4-4.7,15.4-4.7s0.3,2.5,0.5,2.8c0.1,0.3,0.5,0.6,1,0.6
			l8.4,0c0.6,0,1.1-0.5,1.1-1.1l0-45.8C1811,477.2,1810.5,476.7,1809.9,476.7 M1840.2,513.7c-4.5-0.1-7.5-2.2-7.5-2.2v-21.6
			c0,0,3-1.8,6.7-2.2c4.7-0.4,9.2,1,9.2,12.1C1848.5,511.5,1846.5,513.9,1840.2,513.7z M1845.3,475.2c-7.4,0-12.4,3.3-12.4,3.3
			v-23.1c0-0.6-0.5-1.1-1.1-1.1h-13.1c-0.6,0-1.1,0.5-1.1,1.1c0,0,0,0,0,0v68.3c0,0.6,0.5,1.1,1.1,1.1h9.1c0.4,0,0.7-0.2,0.9-0.6
			c0.2-0.4,0.6-3.1,0.6-3.1s5.3,5.1,15.5,5.1c11.9,0,18.7-6,18.7-27.1C1863.6,478,1852.7,475.2,1845.3,475.2 M1702.2,476.6h-9.8
			l0-12.9c0-0.5-0.3-0.7-0.8-0.7h-13.3c-0.5,0-0.8,0.2-0.8,0.7v13.4c0,0-6.7,1.6-7.1,1.7c-0.5,0.1-0.8,0.6-0.8,1v8.4
			c0,0.6,0.5,1.1,1.1,1.1h6.8v20.2c0,15,10.5,16.5,17.6,16.5c3.2,0,7.1-1,7.8-1.3c0.4-0.1,0.6-0.5,0.6-1l0-9.2
			c0-0.6-0.5-1.1-1.1-1.1c-0.6,0-2,0.2-3.5,0.2c-4.8,0-6.4-2.2-6.4-5.1l0-19.2h9.8c0.6,0,1.1-0.5,1.1-1.1v-10.5
			C1703.2,477.1,1702.8,476.6,1702.2,476.6C1702.2,476.6,1702.2,476.6,1702.2,476.6"/>
	</g>
	<path class="st4" d="M1641.9,372.2c0,9,7.3,16.3,16.3,16.3h93.6c9,0,16.3-7.3,16.3-16.3v-93.6c0-9-7.3-16.3-16.3-16.3h-93.6
		c-9,0-16.3,7.3-16.3,16.3V372.2L1641.9,372.2z"/>
	<path class="st5" d="M1694.2,318.1v-17.9h15.7c1.5,0,2.9,0.1,4.3,0.4c1.4,0.2,2.6,0.7,3.7,1.3c1.1,0.6,1.9,1.5,2.6,2.7
		c0.6,1.1,1,2.6,1,4.4c0,3.2-1,5.5-2.9,7c-1.9,1.4-4.4,2.1-7.4,2.1H1694.2L1694.2,318.1z M1677.5,287.2v76.4h37
		c3.4,0,6.8-0.4,10-1.3s6.1-2.2,8.7-4c2.5-1.8,4.5-4.1,6-6.9c1.5-2.8,2.2-6.2,2.2-10c0-4.8-1.2-8.9-3.5-12.3
		c-2.3-3.4-5.8-5.8-10.5-7.1c3.4-1.6,6-3.7,7.8-6.3c1.7-2.6,2.6-5.8,2.6-9.6c0-3.6-0.6-6.6-1.8-9c-1.2-2.4-2.8-4.4-5-5.8
		c-2.1-1.5-4.7-2.5-7.7-3.2c-3-0.6-6.3-1-10-1H1677.5L1677.5,287.2z M1694.2,350.5v-21h18.3c3.6,0,6.6,0.8,8.8,2.5
		c2.2,1.7,3.3,4.5,3.3,8.4c0,2-0.3,3.6-1,4.9c-0.7,1.3-1.6,2.3-2.7,3c-1.1,0.7-2.5,1.3-4,1.6c-1.5,0.3-3.1,0.5-4.7,0.5H1694.2
		L1694.2,350.5z"/>
	<g class="st0">
		<path class="st6" d="M1915.4,206.3c0-9-11.3-17.6-28.6-22.9c4-17.7,2.2-31.7-5.6-36.2c-1.8-1.1-3.9-1.6-6.2-1.6v6.2
			c1.3,0,2.3,0.3,3.2,0.7c3.8,2.2,5.4,10.4,4.1,21c-0.3,2.6-0.8,5.4-1.4,8.2c-5.4-1.3-11.4-2.4-17.6-3c-3.8-5.1-7.6-9.8-11.6-13.9
			c9.1-8.4,17.6-13,23.3-13v-6.2c-7.6,0-17.6,5.4-27.8,14.9c-10.1-9.4-20.1-14.8-27.8-14.8v6.2c5.8,0,14.3,4.6,23.3,12.9
			c-3.9,4.1-7.8,8.7-11.5,13.9c-6.3,0.7-12.2,1.7-17.7,3.1c-0.6-2.8-1.1-5.5-1.4-8.1c-1.3-10.6,0.3-18.9,4.1-21.1
			c0.8-0.5,1.9-0.7,3.2-0.7v-6.2c-2.3,0-4.4,0.5-6.3,1.6c-7.8,4.5-9.6,18.5-5.5,36.1c-17.3,5.3-28.5,13.9-28.5,22.9
			c0,9,11.3,17.6,28.6,22.9c-4,17.7-2.2,31.7,5.6,36.2c1.8,1.1,3.9,1.6,6.3,1.6c7.6,0,17.6-5.4,27.8-14.9
			c10.1,9.4,20.1,14.8,27.8,14.8c2.3,0,4.4-0.5,6.3-1.6c7.8-4.5,9.6-18.5,5.5-36.1C1904.2,223.9,1915.4,215.3,1915.4,206.3
			L1915.4,206.3z M1879.3,187.8c-1,3.6-2.3,7.3-3.8,11c-1.1-2.2-2.3-4.4-3.6-6.7c-1.3-2.2-2.6-4.4-4-6.5
			C1871.8,186.2,1875.6,186.9,1879.3,187.8L1879.3,187.8z M1866.5,217.4c-2.2,3.8-4.4,7.3-6.7,10.6c-4.1,0.4-8.3,0.6-12.6,0.6
			c-4.2,0-8.4-0.2-12.5-0.5c-2.3-3.3-4.6-6.8-6.7-10.6c-2.1-3.6-4-7.3-5.8-11.1c1.7-3.7,3.7-7.4,5.8-11.1c2.2-3.8,4.4-7.3,6.7-10.6
			c4.1-0.4,8.3-0.6,12.6-0.6c4.2,0,8.4,0.2,12.5,0.5c2.3,3.3,4.6,6.8,6.7,10.6c2.1,3.6,4,7.3,5.8,11.1
			C1870.5,210,1868.6,213.7,1866.5,217.4L1866.5,217.4z M1875.5,213.7c1.5,3.7,2.8,7.4,3.8,11.1c-3.6,0.9-7.5,1.6-11.4,2.2
			c1.4-2.1,2.7-4.3,4-6.6C1873.2,218.2,1874.4,216,1875.5,213.7L1875.5,213.7z M1847.3,243.4c-2.6-2.7-5.2-5.6-7.7-8.9
			c2.5,0.1,5.1,0.2,7.6,0.2c2.6,0,5.2-0.1,7.7-0.2C1852.5,237.7,1849.9,240.7,1847.3,243.4z M1826.7,227c-3.9-0.6-7.8-1.3-11.4-2.2
			c1-3.6,2.3-7.3,3.8-11c1.1,2.2,2.3,4.4,3.6,6.7C1824,222.7,1825.3,224.9,1826.7,227z M1847.2,169.2c2.6,2.7,5.2,5.6,7.7,8.9
			c-2.5-0.1-5.1-0.2-7.6-0.2c-2.6,0-5.2,0.1-7.7,0.2C1842.1,174.8,1844.6,171.9,1847.2,169.2z M1826.6,185.6c-1.4,2.1-2.7,4.3-4,6.6
			c-1.3,2.2-2.5,4.4-3.6,6.7c-1.5-3.7-2.8-7.4-3.8-11.1C1818.8,186.9,1822.7,186.2,1826.6,185.6L1826.6,185.6z M1801.5,220.4
			c-9.8-4.2-16.2-9.7-16.2-14.1c0-4.4,6.4-9.9,16.2-14.1c2.4-1,5-1.9,7.7-2.8c1.6,5.4,3.7,11.1,6.3,16.9c-2.6,5.8-4.6,11.4-6.2,16.8
			C1806.5,222.3,1803.9,221.4,1801.5,220.4L1801.5,220.4z M1816.4,260.1c-3.8-2.2-5.4-10.4-4.1-21c0.3-2.6,0.8-5.4,1.4-8.2
			c5.4,1.3,11.4,2.4,17.6,3c3.8,5.1,7.6,9.8,11.6,13.9c-9.1,8.4-17.6,13-23.3,13C1818.3,260.8,1817.3,260.5,1816.4,260.1
			L1816.4,260.1z M1882.3,238.9c1.3,10.6-0.3,18.9-4.1,21.1c-0.8,0.5-1.9,0.7-3.2,0.7c-5.8,0-14.3-4.6-23.3-12.9
			c3.9-4.1,7.8-8.7,11.5-13.9c6.3-0.7,12.2-1.7,17.7-3.1C1881.5,233.6,1882,236.3,1882.3,238.9z M1893,220.4c-2.4,1-5,1.9-7.7,2.8
			c-1.6-5.4-3.7-11.1-6.3-16.9c2.6-5.8,4.6-11.4,6.2-16.8c2.8,0.9,5.4,1.8,7.8,2.8c9.8,4.2,16.2,9.7,16.2,14.1
			C1909.2,210.7,1902.9,216.2,1893,220.4L1893,220.4z"/>
		<circle class="st6" cx="1847.2" cy="206.3" r="12.7"/>
	</g>
	<path class="st7" d="M1362.7,466.4l-10.4-126.7l123.8,0.3l-11,126.4l-50.5,14.6L1362.7,466.4z"/>
	<path class="st8" d="M1414.7,468.8v-117l51,0.2l-9.1,104.7L1414.7,468.8z"/>
	<path class="st5" d="M1451.6,381.1l1.4-15.5h-78.4l4.3,47.4h54.1l-2.1,20.2l-17.3,4.7l-17.6-5.1l-0.9-12.1h-15.6l2.1,24.6l31.9,8.9
		l32.2-8.9l4.3-48.1h-56.8l-1.6-16.2H1451.6z"/>
	<path class="st9" d="M1335.7,186.9L1325,56.8l127.1,0.3l-11.3,129.8l-51.8,15L1335.7,186.9z"/>
	<path class="st10" d="M1389,189.3V69.2l52.3,0.2l-9.3,107.5L1389,189.3z"/>
	<path class="st5" d="M1428.4,84.6h-80.5l2.2,15.7h38.2l-37.6,16.1l2.2,15.2h55.4l-2,21.2l-18.8,3.7l-17-4.4l-1.3-12h-15.6l2.1,25
		l33.5,9.3l32.1-10.2l4.1-48.9h-33.9l37-15.4L1428.4,84.6z"/>
	<path class="st11" d="M1606.7,189.1l-10.8-132.5l129.5,0.3l-11.5,132.2l-52.8,15.3L1606.7,189.1z"/>
	<path class="st12" d="M1661.1,191.6V69.2l53.3,0.2l-9.5,109.5L1661.1,191.6z"/>
	<g class="st0">
		<path class="st13" d="M1655.4,83.7h-14.1v81.4l-11-2.1v-11l-13.1-2.1v24.5l38.1,9.9V83.7z M1666,83.7h39l-2.6,15.6h-21.5V125h21.5
			l-2.6,51.7l-33.8,7.8v-16.2l22.8-7.8l1.3-21.4l-24.2,3.5V83.7z"/>
	</g>
</g>
<g class="st0">
	<rect x="1291" y="561.6" class="st1" width="624.4" height="496.5"/>
	<path class="st2" d="M1459.8,778.6c0,22.8,13.2,42.4,32.4,51.7l-27.4-75.1C1461.5,762.6,1459.8,770.5,1459.8,778.6z M1556.1,775.7
		c0-7.1-2.6-12-4.7-15.9c-2.9-4.7-5.6-8.7-5.6-13.5c0-5.3,4-10.2,9.7-10.2c0.3,0,0.5,0,0.7,0c-10.2-9.4-23.9-15.1-38.8-15.1
		c-20.1,0-37.7,10.3-48,25.9c1.3,0,2.6,0.1,3.7,0.1c6,0,15.3-0.7,15.3-0.7c3.1-0.2,3.5,4.4,0.4,4.7c0,0-3.1,0.4-6.6,0.5l20.9,62.3
		l12.6-37.7l-9-24.5c-3.1-0.2-6-0.5-6-0.5c-3.1-0.2-2.7-4.9,0.4-4.7c0,0,9.5,0.7,15.1,0.7c6,0,15.3-0.7,15.3-0.7
		c3.1-0.2,3.5,4.4,0.4,4.7c0,0-3.1,0.4-6.6,0.5l20.8,61.8l5.7-19.2C1554.2,786.3,1556.1,780.6,1556.1,775.7L1556.1,775.7z
		 M1518.3,783.6l-17.2,50.1c5.3,1.6,10.7,2.3,16.2,2.3c6.7,0,13.1-1.2,19.1-3.3c-0.2-0.3-0.3-0.5-0.4-0.8L1518.3,783.6L1518.3,783.6
		z M1567.8,751c0.2,1.8,0.4,3.8,0.4,5.9c0,5.8-1.1,12.4-4.4,20.6l-17.6,50.8c17.1-10,28.6-28.5,28.6-49.7
		C1574.8,768.6,1572.2,759.2,1567.8,751L1567.8,751z M1517.3,711.6c-36.9,0-67,30.1-67,67c0,36.9,30.1,67,67,67
		c36.9,0,67-30.1,67-67C1584.3,741.7,1554.3,711.6,1517.3,711.6L1517.3,711.6z M1517.3,842.5c-35.3,0-63.9-28.7-63.9-63.9
		c0-35.3,28.7-63.9,63.9-63.9c35.2,0,63.9,28.7,63.9,63.9C1581.2,813.8,1552.6,842.5,1517.3,842.5z"/>
	<g class="st0">
		<path class="st3" d="M1634,1015.5h-23.2c-0.6,0-1.1,0.5-1.1,1.1v11.3c0,0.6,0.5,1.1,1.1,1.1h9v14.1c0,0-2,0.7-7.6,0.7
			c-6.6,0-15.9-2.4-15.9-22.7c0-20.3,9.6-23,18.7-23c7.8,0,11.2,1.4,13.3,2c0.7,0.2,1.3-0.5,1.3-1.1l2.6-10.9c0-0.3-0.1-0.6-0.4-0.8
			c-0.9-0.6-6.2-3.6-19.6-3.6c-15.5,0-31.3,6.6-31.3,38.2c0,31.6,18.2,36.3,33.5,36.3c12.7,0,20.4-5.4,20.4-5.4
			c0.3-0.2,0.4-0.6,0.4-0.8v-35.3C1635.1,1016,1634.6,1015.5,1634,1015.5 M1753.4,987.4c0-0.6-0.5-1.1-1.1-1.1c0,0,0,0,0,0h-13
			c-0.6,0-1.1,0.5-1.1,1.1c0,0,0,0,0,0l0,25.2h-20.3v-25.2c0-0.6-0.5-1.1-1.1-1.1c0,0,0,0,0,0h-13c-0.6,0-1.1,0.5-1.1,1.1v68.3
			c0,0.6,0.5,1.1,1.1,1.1h13c0.6,0,1.1-0.5,1.1-1.1v-29.2h20.3l0,29.2c0,0.6,0.5,1.1,1.1,1.1h13.1c0.6,0,1.1-0.5,1.1-1.1V987.4
			 M1658.6,996.3c0-4.7-3.8-8.5-8.4-8.5c-4.6,0-8.4,3.8-8.4,8.5c0,4.7,3.8,8.5,8.4,8.5C1654.8,1004.8,1658.6,1001,1658.6,996.3
			 M1657.7,1041.2v-31.5c0-0.6-0.5-1.1-1.1-1.1h-13c-0.6,0-1.1,0.6-1.1,1.2v45.1c0,1.3,0.8,1.7,1.9,1.7h11.7c1.3,0,1.6-0.6,1.6-1.7
			V1041.2 M1802.9,1008.7H1790c-0.6,0-1.1,0.5-1.1,1.1v33.5c0,0-3.3,2.4-8,2.4c-4.7,0-5.9-2.1-5.9-6.7v-29.2c0-0.6-0.5-1.1-1.1-1.1
			h-13.1c-0.6,0-1.1,0.5-1.1,1.1v31.4c0,13.6,7.6,16.9,18,16.9c8.5,0,15.4-4.7,15.4-4.7s0.3,2.5,0.5,2.8c0.1,0.3,0.5,0.6,1,0.6
			l8.4,0c0.6,0,1.1-0.5,1.1-1.1l0-45.8C1804,1009.2,1803.5,1008.7,1802.9,1008.7 M1833.2,1045.7c-4.5-0.1-7.5-2.2-7.5-2.2v-21.6
			c0,0,3-1.8,6.7-2.2c4.7-0.4,9.2,1,9.2,12.1C1841.5,1043.5,1839.5,1045.9,1833.2,1045.7z M1838.3,1007.2c-7.4,0-12.4,3.3-12.4,3.3
			v-23.1c0-0.6-0.5-1.1-1.1-1.1h-13.1c-0.6,0-1.1,0.5-1.1,1.1c0,0,0,0,0,0v68.3c0,0.6,0.5,1.1,1.1,1.1h9.1c0.4,0,0.7-0.2,0.9-0.6
			c0.2-0.4,0.6-3.1,0.6-3.1s5.3,5.1,15.5,5.1c11.9,0,18.7-6,18.7-27.1C1856.6,1010,1845.7,1007.2,1838.3,1007.2 M1695.2,1008.6h-9.8
			l0-12.9c0-0.5-0.3-0.7-0.8-0.7h-13.3c-0.5,0-0.8,0.2-0.8,0.7v13.4c0,0-6.7,1.6-7.1,1.7c-0.5,0.1-0.8,0.6-0.8,1v8.4
			c0,0.6,0.5,1.1,1.1,1.1h6.8v20.2c0,15,10.5,16.5,17.6,16.5c3.2,0,7.1-1,7.8-1.3c0.4-0.1,0.6-0.5,0.6-1l0-9.2
			c0-0.6-0.5-1.1-1.1-1.1c-0.6,0-2,0.2-3.5,0.2c-4.8,0-6.4-2.2-6.4-5.1l0-19.2h9.8c0.6,0,1.1-0.5,1.1-1.1v-10.5
			C1696.2,1009.1,1695.8,1008.6,1695.2,1008.6C1695.2,1008.6,1695.2,1008.6,1695.2,1008.6"/>
	</g>
	<path class="st4" d="M1634.9,904.2c0,9,7.3,16.3,16.3,16.3h93.6c9,0,16.3-7.3,16.3-16.3v-93.6c0-9-7.3-16.3-16.3-16.3h-93.6
		c-9,0-16.3,7.3-16.3,16.3V904.2L1634.9,904.2z"/>
	<path class="st5" d="M1687.2,850.1v-17.9h15.7c1.5,0,2.9,0.1,4.3,0.4c1.4,0.2,2.6,0.7,3.7,1.3c1.1,0.6,1.9,1.5,2.6,2.7
		c0.6,1.1,1,2.6,1,4.4c0,3.2-1,5.5-2.9,7c-1.9,1.4-4.4,2.1-7.4,2.1H1687.2L1687.2,850.1z M1670.5,819.2v76.4h37
		c3.4,0,6.8-0.4,10-1.3c3.2-0.9,6.1-2.2,8.7-4c2.5-1.8,4.5-4.1,6-6.9c1.5-2.8,2.2-6.2,2.2-10c0-4.8-1.2-8.9-3.5-12.3
		c-2.3-3.4-5.8-5.8-10.5-7.1c3.4-1.6,6-3.7,7.8-6.3c1.7-2.6,2.6-5.8,2.6-9.6c0-3.6-0.6-6.6-1.8-9c-1.2-2.4-2.8-4.4-5-5.8
		c-2.1-1.5-4.7-2.5-7.7-3.2c-3-0.6-6.3-1-10-1H1670.5L1670.5,819.2z M1687.2,882.5v-21h18.3c3.6,0,6.6,0.8,8.8,2.5
		c2.2,1.7,3.3,4.5,3.3,8.4c0,2-0.3,3.6-1,4.9c-0.7,1.3-1.6,2.3-2.7,3c-1.1,0.7-2.5,1.3-4,1.6c-1.5,0.3-3.1,0.5-4.7,0.5H1687.2
		L1687.2,882.5z"/>
	<g class="st0">
		<path class="st6" d="M1908.4,738.3c0-9-11.3-17.6-28.6-22.9c4-17.7,2.2-31.7-5.6-36.2c-1.8-1.1-3.9-1.6-6.2-1.6v6.2
			c1.3,0,2.3,0.2,3.2,0.7c3.8,2.2,5.4,10.4,4.1,21c-0.3,2.6-0.8,5.4-1.4,8.2c-5.4-1.3-11.4-2.4-17.6-3c-3.8-5.1-7.6-9.8-11.6-13.9
			c9.1-8.4,17.6-13,23.3-13v-6.2c-7.6,0-17.6,5.4-27.8,14.9c-10.1-9.4-20.1-14.8-27.8-14.8v6.2c5.8,0,14.3,4.6,23.3,12.9
			c-3.9,4.1-7.8,8.7-11.5,13.9c-6.3,0.7-12.2,1.7-17.7,3.1c-0.6-2.8-1.1-5.5-1.4-8.1c-1.3-10.6,0.3-18.9,4.1-21.1
			c0.8-0.5,1.9-0.7,3.2-0.7v-6.2c-2.3,0-4.4,0.5-6.3,1.6c-7.8,4.5-9.6,18.5-5.5,36.1c-17.3,5.3-28.5,13.9-28.5,22.9
			c0,9,11.3,17.6,28.6,22.9c-4,17.7-2.2,31.7,5.6,36.2c1.8,1.1,3.9,1.6,6.3,1.6c7.6,0,17.6-5.4,27.8-14.9
			c10.1,9.4,20.1,14.8,27.8,14.8c2.3,0,4.4-0.5,6.3-1.6c7.8-4.5,9.6-18.5,5.5-36.1C1897.2,755.9,1908.4,747.3,1908.4,738.3
			L1908.4,738.3z M1872.3,719.8c-1,3.6-2.3,7.3-3.8,11c-1.1-2.2-2.3-4.4-3.6-6.7c-1.3-2.2-2.6-4.4-4-6.5
			C1864.8,718.2,1868.6,718.9,1872.3,719.8L1872.3,719.8z M1859.5,749.4c-2.2,3.8-4.4,7.3-6.7,10.6c-4.1,0.4-8.3,0.6-12.6,0.6
			c-4.2,0-8.4-0.2-12.5-0.5c-2.3-3.3-4.6-6.8-6.7-10.6c-2.1-3.6-4-7.3-5.8-11.1c1.7-3.7,3.7-7.4,5.8-11.1c2.2-3.8,4.4-7.3,6.7-10.6
			c4.1-0.4,8.3-0.6,12.6-0.6c4.2,0,8.4,0.2,12.5,0.5c2.3,3.3,4.6,6.8,6.7,10.6c2.1,3.6,4,7.3,5.8,11.1
			C1863.5,742,1861.6,745.7,1859.5,749.4L1859.5,749.4z M1868.5,745.7c1.5,3.7,2.8,7.4,3.8,11.1c-3.6,0.9-7.5,1.6-11.4,2.2
			c1.4-2.1,2.7-4.3,4-6.6C1866.2,750.2,1867.4,748,1868.5,745.7L1868.5,745.7z M1840.3,775.4c-2.6-2.7-5.2-5.6-7.7-8.9
			c2.5,0.1,5.1,0.2,7.6,0.2c2.6,0,5.2-0.1,7.7-0.2C1845.5,769.7,1842.9,772.7,1840.3,775.4z M1819.7,759c-3.9-0.6-7.8-1.3-11.4-2.2
			c1-3.6,2.3-7.3,3.8-11c1.1,2.2,2.3,4.4,3.6,6.7S1818.3,756.9,1819.7,759z M1840.2,701.2c2.6,2.7,5.2,5.6,7.7,8.9
			c-2.5-0.1-5.1-0.2-7.6-0.2c-2.6,0-5.2,0.1-7.7,0.2C1835.1,706.8,1837.6,703.9,1840.2,701.2z M1819.6,717.6c-1.4,2.1-2.7,4.3-4,6.6
			c-1.3,2.2-2.5,4.4-3.6,6.7c-1.5-3.7-2.8-7.4-3.8-11.1C1811.8,718.9,1815.7,718.2,1819.6,717.6L1819.6,717.6z M1794.5,752.4
			c-9.8-4.2-16.2-9.7-16.2-14.1s6.4-9.9,16.2-14.1c2.4-1,5-1.9,7.7-2.8c1.6,5.4,3.7,11.1,6.3,16.9c-2.6,5.8-4.6,11.4-6.2,16.8
			C1799.5,754.3,1796.9,753.4,1794.5,752.4L1794.5,752.4z M1809.4,792.1c-3.8-2.2-5.4-10.4-4.1-21c0.3-2.6,0.8-5.4,1.4-8.2
			c5.4,1.3,11.4,2.4,17.6,3c3.8,5.1,7.6,9.8,11.6,13.9c-9.1,8.4-17.6,13-23.3,13C1811.3,792.8,1810.3,792.5,1809.4,792.1
			L1809.4,792.1z M1875.3,770.9c1.3,10.6-0.3,18.9-4.1,21.1c-0.8,0.5-1.9,0.7-3.2,0.7c-5.8,0-14.3-4.6-23.3-12.9
			c3.9-4.1,7.8-8.7,11.5-13.9c6.3-0.7,12.2-1.7,17.7-3.1C1874.5,765.6,1875,768.3,1875.3,770.9z M1886,752.4c-2.4,1-5,1.9-7.7,2.8
			c-1.6-5.4-3.7-11.1-6.3-16.9c2.6-5.8,4.6-11.4,6.2-16.8c2.8,0.9,5.4,1.8,7.8,2.8c9.8,4.2,16.2,9.7,16.2,14.1
			C1902.2,742.7,1895.9,748.2,1886,752.4L1886,752.4z"/>
		<circle class="st6" cx="1840.2" cy="738.3" r="12.7"/>
	</g>
	<path class="st7" d="M1355.7,998.4l-10.4-126.7l123.8,0.3l-11,126.4l-50.5,14.6L1355.7,998.4z"/>
	<path class="st8" d="M1407.7,1000.8v-117l51,0.2l-9.1,104.7L1407.7,1000.8z"/>
	<path class="st5" d="M1444.6,913.1l1.4-15.5h-78.4l4.3,47.4h54.1l-2.1,20.2l-17.3,4.7l-17.6-5.1l-0.9-12.1h-15.6l2.1,24.6l31.9,8.9
		l32.2-8.9l4.3-48.1h-56.8l-1.6-16.2H1444.6z"/>
	<path class="st9" d="M1328.7,718.9L1318,588.8l127.1,0.3l-11.3,129.8l-51.8,15L1328.7,718.9z"/>
	<path class="st10" d="M1382,721.3V601.2l52.3,0.2l-9.3,107.5L1382,721.3z"/>
	<path class="st5" d="M1421.4,616.6h-80.5l2.2,15.7h38.2l-37.6,16.1l2.2,15.2h55.4l-2,21.2l-18.8,3.7l-17-4.4l-1.3-12h-15.6l2.1,25
		l33.5,9.3l32.1-10.2l4.1-48.9h-33.9l37-15.4L1421.4,616.6z"/>
	<path class="st11" d="M1599.7,721.1l-10.8-132.5l129.5,0.3l-11.5,132.2l-52.8,15.3L1599.7,721.1z"/>
	<path class="st12" d="M1654.1,723.6V601.2l53.3,0.2l-9.5,109.5L1654.1,723.6z"/>
	<g class="st0">
		<path class="st13" d="M1648.4,615.7h-14.1v81.4l-11-2.1v-11l-13.1-2.1v24.5l38.1,9.9V615.7z M1659,615.7h39l-2.6,15.6h-21.5V657
			h21.5l-2.6,51.7l-33.8,7.8v-16.2l22.8-7.8l1.3-21.4l-24.2,3.5V615.7z"/>
	</g>
</g>
</svg>
